<svg width="375" height="153" viewBox="0 0 375 153" fill="none" xmlns="http://www.w3.org/2000/svg">
<path d="M110.308 60C112.898 60 114.126 60.2372 115.402 60.9196C116.554 61.5357 117.464 62.4458 118.08 63.5979C118.763 64.8738 119 66.1022 119 68.6917V73.3083C119 75.8978 118.763 77.1262 118.08 78.4021C117.464 79.5542 116.554 80.4643 115.402 81.0804C114.126 81.7628 112.898 82 110.308 82H105.692C103.102 82 101.874 81.7628 100.598 81.0804C99.4458 80.4643 98.5357 79.5542 97.9196 78.4021C97.2372 77.1262 97 75.8978 97 73.3083V68.6917C97 66.1022 97.2372 64.8738 97.9196 63.5979C98.5357 62.4458 99.4458 61.5357 100.598 60.9196C101.874 60.2372 103.102 60 105.692 60H110.308ZM111.979 72.4419L107.777 77.6294C107.426 78.0628 106.788 78.1253 106.36 77.7682L104.061 75.8528L100.963 78.9516C101.144 79.0857 101.337 79.2076 101.541 79.3168C102.488 79.823 103.404 80 105.692 80H110.308C112.596 80 113.512 79.823 114.459 79.3168C115.262 78.8871 115.887 78.2624 116.317 77.4589C116.464 77.1842 116.583 76.9121 116.678 76.6082L111.979 72.4419ZM110.308 62H105.692C103.404 62 102.488 62.177 101.541 62.6832C100.738 63.1129 100.113 63.7376 99.6832 64.5411C99.177 65.4876 99 66.4042 99 68.6917V73.3083C99 75.5652 99.1723 76.4876 99.6631 77.4209L103.293 73.7929C103.659 73.4272 104.243 73.4007 104.64 73.7318L106.861 75.5826L111.083 70.3706C111.442 69.9278 112.097 69.8738 112.524 70.2517L116.989 74.2102C116.996 73.9349 117 73.6356 117 73.3083V68.6917C117 66.4042 116.823 65.4876 116.317 64.5411C115.887 63.7376 115.262 63.1129 114.459 62.6832C113.512 62.177 112.596 62 110.308 62ZM104.5 66C105.328 66 106 66.6716 106 67.5C106 68.3284 105.328 69 104.5 69C103.672 69 103 68.3284 103 67.5C103 66.6716 103.672 66 104.5 66Z" fill="#3F8AE0"/>
<path d="M133.43 71.9922H134.984C136.562 71.9922 137.469 72.7031 137.469 73.8438V73.8594C137.469 74.9844 136.5 75.7344 135.039 75.7344C133.609 75.7344 132.633 75.0938 132.516 74.0234L132.508 73.9688H130.805V74.0469C130.938 75.9922 132.617 77.2734 135.039 77.2734C137.414 77.2734 139.25 75.8516 139.25 73.9453V73.9297C139.25 72.3516 138.203 71.3438 136.742 71.1953V71.0625C137.992 70.7734 138.859 69.7344 138.859 68.5V68.4844C138.859 66.7031 137.297 65.4531 135.078 65.4531C132.781 65.4531 131.266 66.6562 131.109 68.5938L131.094 68.7188H132.773L132.781 68.6641C132.891 67.6094 133.734 66.9922 135.023 66.9922C136.344 66.9922 137.125 67.6406 137.125 68.6641V68.6797C137.125 69.7656 136.273 70.5156 134.938 70.5156H133.43V71.9922ZM143.414 77.1406C144.539 77.1406 145.43 76.6562 145.93 75.7969H146.063V77H147.743V71.1953C147.743 69.4141 146.539 68.3516 144.407 68.3516C142.477 68.3516 141.141 69.2812 140.938 70.6719L140.93 70.7266H142.563L142.571 70.6953C142.774 70.0938 143.391 69.75 144.328 69.75C145.477 69.75 146.063 70.2656 146.063 71.1953V71.9453L143.766 72.0781C141.743 72.2031 140.602 73.0859 140.602 74.6016V74.6172C140.602 76.1562 141.797 77.1406 143.414 77.1406ZM142.289 74.5469V74.5312C142.289 73.7656 142.821 73.3438 143.993 73.2734L146.063 73.1406V73.8672C146.063 74.9609 145.133 75.7891 143.868 75.7891C142.953 75.7891 142.289 75.3281 142.289 74.5469ZM155.563 69.8516V68.5156H149.962V77H151.657V69.8516H155.563ZM157.243 79.8281H158.938V75.6562H159.063C159.517 76.5703 160.509 77.1406 161.673 77.1406C163.829 77.1406 165.188 75.4531 165.188 72.7656V72.75C165.188 70.0781 163.813 68.3672 161.673 68.3672C160.485 68.3672 159.556 68.9219 159.063 69.8516H158.938V68.5156H157.243V79.8281ZM161.196 75.6953C159.782 75.6953 158.907 74.5781 158.907 72.7656V72.75C158.907 70.9375 159.782 69.8203 161.196 69.8203C162.61 69.8203 163.462 70.9219 163.462 72.75V72.7656C163.462 74.5859 162.61 75.6953 161.196 75.6953ZM167.564 79.9844C169.283 79.9844 170.142 79.3516 170.861 77.3281L174.017 68.5156H172.236L170.118 75.2969H169.97L167.845 68.5156H166.017L169.095 77.0078L168.97 77.4453C168.72 78.3047 168.243 78.6406 167.454 78.6406C167.259 78.6406 167.048 78.6328 166.884 78.6094V79.9453C167.103 79.9688 167.353 79.9844 167.564 79.9844ZM178.298 77.1641C180.392 77.1641 181.767 76.0781 181.767 74.5078V74.4922C181.767 73.5391 181.189 72.8672 180.033 72.625V72.4922C180.916 72.2891 181.478 71.5625 181.478 70.6875V70.6719C181.478 69.2656 180.306 68.3438 178.345 68.3438C176.416 68.3438 175.197 69.2891 175.002 70.7266L174.994 70.7812H176.619L176.627 70.7422C176.752 70.1016 177.4 69.6875 178.306 69.6875C179.322 69.6875 179.83 70.1797 179.83 70.8438V70.8594C179.83 71.6406 179.298 72.0547 178.275 72.0547H177.017V73.2891H178.283C179.463 73.2891 180.095 73.6875 180.095 74.5078V74.5234C180.095 75.2891 179.423 75.8281 178.283 75.8281C177.322 75.8281 176.627 75.4219 176.455 74.75L176.439 74.6953H174.767L174.775 74.7578C174.955 76.2891 176.416 77.1641 178.298 77.1641ZM183.635 77H185.314L189.15 71.0234H189.299V77H190.978V68.5156H189.299L185.463 74.4688H185.314V68.5156H183.635V77ZM199.596 68.5156H192.557V69.8516H195.229V77H196.924V69.8516H199.596V68.5156ZM201.167 77H204.526C206.495 77 207.753 75.8672 207.753 74.0781V74.0625C207.753 72.2812 206.495 71.1484 204.526 71.1484H202.862V68.5156H201.167V77ZM204.385 72.4844C205.401 72.4844 206.049 73.1094 206.049 74.0625V74.0781C206.049 75.0234 205.409 75.6641 204.385 75.6641H202.862V72.4844H204.385ZM217.128 77.1641C219.613 77.1641 221.136 75.5 221.136 72.7656V72.75C221.136 70.0156 219.605 68.3516 217.128 68.3516C214.644 68.3516 213.113 70.0234 213.113 72.75V72.7656C213.113 75.5 214.636 77.1641 217.128 77.1641ZM217.128 75.75C215.667 75.75 214.847 74.6484 214.847 72.7656V72.75C214.847 70.8672 215.667 69.7656 217.128 69.7656C218.581 69.7656 219.409 70.8672 219.409 72.75V72.7656C219.409 74.6406 218.581 75.75 217.128 75.75ZM226.652 77.1641C229.144 77.1641 230.683 75.4766 230.683 72.7812V72.7656C230.683 70.25 229.214 68.6406 226.949 68.6406C225.644 68.6406 224.644 69.1953 224.082 70.2109H223.949L223.972 70.0469C224.269 67.8438 225.128 66.9531 227.074 66.875L227.996 66.8359C228.941 66.7969 229.832 66.6094 230.128 66.3828V64.9688C229.425 65.2344 228.597 65.3594 227.91 65.3906L226.972 65.4297C223.902 65.5625 222.589 67.5312 222.589 71.9844V72C222.589 75.3672 223.988 77.1641 226.652 77.1641ZM226.636 75.75C225.16 75.75 224.316 74.6562 224.316 72.8047V72.7891C224.316 71.0312 225.16 70.0234 226.636 70.0234C228.105 70.0234 228.957 71.0312 228.957 72.7891V72.8047C228.957 74.6562 228.105 75.75 226.636 75.75ZM234.746 73.4766L235.019 69.8516H237.699V77H239.394V68.5156H233.535L233.207 73.3438C233.129 74.5781 232.84 75.5625 232.058 75.5625C231.848 75.5625 231.637 75.5312 231.558 75.5078V76.9844C231.676 77.0234 231.918 77.0781 232.238 77.0781C233.84 77.0781 234.574 75.875 234.746 73.4766ZM245.262 77.1641C247.746 77.1641 249.27 75.5 249.27 72.7656V72.75C249.27 70.0156 247.738 68.3516 245.262 68.3516C242.777 68.3516 241.246 70.0234 241.246 72.75V72.7656C241.246 75.5 242.77 77.1641 245.262 77.1641ZM245.262 75.75C243.801 75.75 242.981 74.6484 242.981 72.7656V72.75C242.981 70.8672 243.801 69.7656 245.262 69.7656C246.715 69.7656 247.543 70.8672 247.543 72.75V72.7656C247.543 74.6406 246.715 75.75 245.262 75.75ZM251.84 77L254.622 73.2188H255.114V77H256.754V73.2188H257.254L260.028 77H262.075L258.598 72.4609L261.895 68.5156H259.957L257.247 72.0078H256.754V68.5156H255.114V72.0078H254.629L251.918 68.5156H249.957L253.278 72.4844L249.825 77H251.84ZM265.567 73.25L268.606 77H270.7L266.942 72.4688L270.544 68.5156H268.567L265.559 71.9844H265.137V68.5156H263.442V77H265.137V73.25H265.567ZM272.693 79.9844C274.411 79.9844 275.271 79.3516 275.989 77.3281L279.146 68.5156H277.364L275.247 75.2969H275.099L272.974 68.5156H271.146L274.224 77.0078L274.099 77.4453C273.849 78.3047 273.372 78.6406 272.583 78.6406C272.388 78.6406 272.177 78.6328 272.013 78.6094V79.9453C272.232 79.9688 272.482 79.9844 272.693 79.9844Z" fill="#3F8AE0"/>
<rect x="12" y="1" width="351" height="140" rx="10" stroke="#3F8AE0" stroke-linecap="round" stroke-linejoin="round" stroke-dasharray="4 4"/>
</svg>
